<svg width="70" height="70" viewBox="0 0 70 70" fill="none" xmlns="http://www.w3.org/2000/svg">
<rect width="70" height="70" rx="35" fill="#4EB8E7"/>
<path d="M25.1914 48.2715V43.1738L34.9648 35.0879C35.6094 34.5488 36.166 34.0449 36.6348 33.5762C37.1035 33.0957 37.4609 32.6035 37.707 32.0996C37.9648 31.5957 38.0938 31.0332 38.0938 30.4121C38.0938 29.7441 37.9473 29.1758 37.6543 28.707C37.373 28.2266 36.9805 27.8574 36.4766 27.5996C35.9844 27.3418 35.4102 27.2129 34.7539 27.2129C34.0977 27.2129 33.5176 27.3477 33.0137 27.6172C32.5215 27.875 32.1348 28.2559 31.8535 28.7598C31.584 29.2637 31.4492 29.8848 31.4492 30.623H24.6992C24.6992 28.7832 25.1094 27.2012 25.9297 25.877C26.7617 24.5527 27.9336 23.5332 29.4453 22.8184C30.957 22.0918 32.7266 21.7285 34.7539 21.7285C36.8516 21.7285 38.668 22.0625 40.2031 22.7305C41.7383 23.3984 42.9219 24.3418 43.7539 25.5605C44.5977 26.7676 45.0195 28.1855 45.0195 29.8145C45.0195 30.8223 44.8086 31.8242 44.3867 32.8203C43.9766 33.8047 43.2324 34.9004 42.1543 36.1074C41.0762 37.3145 39.5352 38.7441 37.5312 40.3965L35.0703 42.4355V42.6113H45.3008V48.2715H25.1914Z" fill="white"/>
</svg>
