<svg width="70" height="70" viewBox="0 0 70 70" fill="none" xmlns="http://www.w3.org/2000/svg">
<rect width="70" height="70" rx="35" fill="#4EB8E7"/>
<path d="M34.8594 48.4473C32.7969 48.4473 30.9629 48.0957 29.3574 47.3926C27.7637 46.6777 26.5098 45.6934 25.5957 44.4395C24.6934 43.1855 24.2422 41.7441 24.2422 40.1152H31.3789C31.3789 40.6191 31.5312 41.0703 31.8359 41.4688C32.1406 41.8555 32.5625 42.1602 33.1016 42.3828C33.6406 42.6055 34.25 42.7168 34.9297 42.7168C35.5859 42.7168 36.1602 42.5996 36.6523 42.3652C37.1562 42.1309 37.543 41.8086 37.8125 41.3984C38.0938 40.9883 38.2344 40.5137 38.2344 39.9746C38.2344 39.4355 38.0703 38.9668 37.7422 38.5684C37.4258 38.1582 36.9746 37.8418 36.3887 37.6191C35.8145 37.3848 35.1406 37.2676 34.3672 37.2676H31.6953V32.3457H34.3672C35.0703 32.3457 35.6914 32.2285 36.2305 31.9941C36.7695 31.7598 37.1914 31.4434 37.4961 31.0449C37.8008 30.6348 37.9531 30.166 37.9531 29.6387C37.9531 29.123 37.8242 28.6719 37.5664 28.2852C37.3086 27.8984 36.9512 27.5938 36.4941 27.3711C36.0488 27.1484 35.5273 27.0371 34.9297 27.0371C34.2734 27.0371 33.6875 27.1543 33.1719 27.3887C32.668 27.6113 32.2695 27.9277 31.9766 28.3379C31.6953 28.7363 31.5547 29.2051 31.5547 29.7441H24.7344C24.7344 28.1387 25.168 26.7207 26.0352 25.4902C26.9141 24.2598 28.1211 23.2988 29.6562 22.6074C31.1914 21.9043 32.9492 21.5527 34.9297 21.5527C36.8633 21.5527 38.5742 21.8809 40.0625 22.5371C41.5508 23.1934 42.7109 24.0957 43.543 25.2441C44.3867 26.3926 44.8086 27.7051 44.8086 29.1816C44.8086 30.6348 44.2988 31.8359 43.2793 32.7852C42.2715 33.7227 40.9883 34.2793 39.4297 34.4551V34.6309C41.5391 34.8652 43.1211 35.5156 44.1758 36.582C45.2305 37.6367 45.7578 38.9668 45.7578 40.5723C45.7578 42.1074 45.2949 43.4727 44.3691 44.668C43.4434 45.8516 42.1602 46.7773 40.5195 47.4453C38.8906 48.1133 37.0039 48.4473 34.8594 48.4473Z" fill="white"/>
</svg>
