<svg width="32" height="30" viewBox="0 0 32 30" fill="none" xmlns="http://www.w3.org/2000/svg">
<g clip-path="url(#clip0_296_24)">
<path d="M17.8533 16.9519V29.6466H28.7413C29.2854 29.6484 29.7284 29.2089 29.7247 28.667V16.952L17.8533 16.9519Z" fill="#4EB8E7"/>
<path d="M2.2815 16.9538V28.6688C2.27966 29.2052 2.71165 29.6429 3.25025 29.6483H14.1491V16.9537L2.2815 16.9538Z" fill="#4EB8E7"/>
<path d="M6.19851 0.351564C4.04411 0.351564 2.27757 2.1112 2.27757 4.25719C2.27757 4.9658 2.47059 5.63231 2.80515 6.20728H1.29597H1.29781C1.03678 6.20545 0.784961 6.30799 0.601102 6.49292C0.415441 6.67603 0.3125 6.92688 0.3125 7.18691V14.0185C0.3125 14.2785 0.415441 14.5293 0.601102 14.7125C0.784923 14.8974 1.03676 14.9999 1.29781 14.9999H14.1491V6.20712H6.25593H6.25776C6.23754 6.20529 6.21732 6.20346 6.1971 6.20346C5.10336 6.20346 4.22835 5.34836 4.22835 4.25889C4.22835 3.16942 5.10152 2.3125 6.1971 2.3125C10.3717 2.3125 12.9195 4.6361 14.1712 6.20716H17.8238C19.0738 4.6361 21.6197 2.3125 25.7927 2.3125C26.8865 2.3125 27.7615 3.1676 27.7615 4.25889C27.7615 5.34836 26.8883 6.20346 25.7927 6.20346H25.7946C25.7872 6.20346 25.7799 6.20529 25.7725 6.20712H17.8534V14.9999H30.708H30.7227C31.2613 14.9926 31.6933 14.555 31.6915 14.0185V7.1869C31.6933 6.92689 31.5904 6.67788 31.4047 6.49292C31.2209 6.30981 30.9691 6.20544 30.708 6.20727H29.1915C29.526 5.6323 29.719 4.96584 29.719 4.25718C29.719 2.11119 27.947 0.351555 25.7944 0.351555C20.5629 0.351555 17.4104 3.52476 15.9987 5.4014C14.5869 3.52457 11.4307 0.351555 6.19912 0.351555L6.19851 0.351564Z" fill="#4EB8E7"/>
</g>
<defs>
<clipPath id="clip0_296_24">
<rect width="32" height="30" fill="white"/>
</clipPath>
</defs>
</svg>
