<svg width="197" height="31" viewBox="0 0 197 31" fill="none" xmlns="http://www.w3.org/2000/svg">
<path d="M50.4358 6.40942L54.2444 12.8586H54.3967L58.218 6.40942H62.7375L56.9612 15.8801L62.8772 25.3254H58.2561L54.3967 18.8762H54.2444L50.3596 25.3254H45.7893L51.7053 15.8801L45.8909 6.40942H50.4358ZM69.9866 25.6047C68.5562 25.6047 67.3163 25.3 66.2668 24.6907C65.2258 24.0728 64.4218 23.218 63.8547 22.1262C63.2961 21.026 63.0168 19.748 63.0168 18.2922C63.0168 16.8196 63.2961 15.5374 63.8547 14.4456C64.4218 13.3453 65.2258 12.4905 66.2668 11.8811C67.3163 11.2633 68.5562 10.9543 69.9866 10.9543C71.4254 10.9543 72.6653 11.2633 73.7063 11.8811C74.7558 12.4905 75.5598 13.3453 76.1184 14.4456C76.6855 15.5374 76.969 16.8196 76.969 18.2922C76.969 19.748 76.6855 21.026 76.1184 22.1262C75.5598 23.218 74.7558 24.0728 73.7063 24.6907C72.6653 25.3 71.4254 25.6047 69.9866 25.6047ZM70.012 22.5325C70.6637 22.5325 71.2096 22.3505 71.6497 21.9866C72.0898 21.6142 72.4198 21.1064 72.6399 20.4631C72.8684 19.8199 72.9827 19.0878 72.9827 18.2668C72.9827 17.4374 72.8684 16.7053 72.6399 16.0706C72.4198 15.4358 72.0898 14.9364 71.6497 14.5725C71.2096 14.2086 70.6637 14.0266 70.012 14.0266C69.3518 14.0266 68.7974 14.2086 68.3489 14.5725C67.9088 14.9364 67.5745 15.4358 67.3459 16.0706C67.1259 16.7053 67.0159 17.4374 67.0159 18.2668C67.0159 19.0878 67.1259 19.8199 67.3459 20.4631C67.5745 21.1064 67.9088 21.6142 68.3489 21.9866C68.7974 22.3505 69.3518 22.5325 70.012 22.5325ZM77.3245 14.2297V11.1321H90.1594V14.2297H85.6018V25.3254H81.8567V14.2297H77.3245ZM97.6877 25.6047C96.232 25.6047 94.9752 25.3085 93.9172 24.7161C92.8593 24.1236 92.0468 23.2815 91.4797 22.1897C90.9211 21.0894 90.6418 19.7903 90.6418 18.2922C90.6418 16.8365 90.9211 15.5585 91.4797 14.4583C92.0468 13.358 92.8424 12.4989 93.8665 11.8811C94.899 11.2633 96.1093 10.9543 97.4973 10.9543C98.4368 10.9543 99.3127 11.1067 100.125 11.4114C100.938 11.7076 101.649 12.1562 102.258 12.7571C102.867 13.3495 103.341 14.0986 103.68 15.0042C104.018 15.9013 104.188 16.955 104.188 18.1653V19.2317H92.2034V16.8069H102.283L100.455 17.4417C100.455 16.7222 100.345 16.0959 100.125 15.5627C99.9052 15.0295 99.5751 14.6191 99.135 14.3313C98.7034 14.0351 98.1659 13.887 97.5227 13.887C96.8795 13.887 96.3336 14.0351 95.885 14.3313C95.4449 14.6275 95.1064 15.0295 94.8694 15.5374C94.6324 16.0452 94.5139 16.6292 94.5139 17.2893V19.0032C94.5139 19.7734 94.6493 20.4335 94.9202 20.9836C95.191 21.5253 95.5676 21.9443 96.05 22.2405C96.5409 22.5282 97.1038 22.6721 97.7385 22.6721C98.1786 22.6721 98.5764 22.6086 98.9319 22.4817C99.2874 22.3547 99.592 22.1685 99.8459 21.9231C100.108 21.6777 100.303 21.3814 100.43 21.0344L104.061 21.2756C103.883 22.1474 103.511 22.9091 102.944 23.5608C102.385 24.204 101.661 24.7076 100.773 25.0715C99.884 25.427 98.8557 25.6047 97.6877 25.6047ZM105.026 25.3254L105.013 22.2151H105.483C105.931 22.2066 106.295 22.0543 106.574 21.7581C106.862 21.4618 107.078 20.9667 107.222 20.2727C107.374 19.5702 107.472 18.6223 107.514 17.429L107.755 11.1321H118.533V25.3254H114.788V14.2297H111.284L111.056 18.5715C110.997 19.7564 110.853 20.7763 110.624 21.6311C110.396 22.4859 110.078 23.1884 109.672 23.7385C109.274 24.2802 108.783 24.6822 108.199 24.9446C107.624 25.1985 106.96 25.3254 106.206 25.3254H105.026ZM120.857 25.3254V11.1321H124.78V16.6418H125.897L129.743 11.1321H134.365L129.35 18.1907L134.415 25.3254H129.743L126.24 20.2981H124.78V25.3254H120.857ZM139.265 25.592C138.368 25.592 137.559 25.4355 136.84 25.1223C136.129 24.8007 135.571 24.3267 135.164 23.7004C134.758 23.0741 134.555 22.2955 134.555 21.3645C134.555 20.5689 134.699 19.9088 134.987 19.384C135.274 18.8508 135.668 18.4192 136.167 18.0891C136.667 17.759 137.234 17.5094 137.868 17.3401C138.503 17.1708 139.176 17.0523 139.887 16.9846C140.708 16.9084 141.368 16.8323 141.867 16.7561C142.367 16.6799 142.731 16.5657 142.959 16.4133C143.196 16.2525 143.315 16.024 143.315 15.7278V15.6643C143.315 15.0803 143.128 14.6275 142.756 14.3059C142.392 13.9843 141.876 13.8235 141.207 13.8235C140.505 13.8235 139.942 13.9801 139.519 14.2932C139.104 14.5979 138.829 14.9872 138.694 15.4612L135.05 15.1692C135.236 14.3059 135.6 13.5611 136.142 12.9348C136.684 12.3 137.382 11.8134 138.237 11.4749C139.1 11.1278 140.099 10.9543 141.233 10.9543C142.02 10.9543 142.773 11.0474 143.492 11.2336C144.212 11.4198 144.851 11.7076 145.409 12.0969C145.976 12.4778 146.425 12.9729 146.755 13.5823C147.085 14.1917 147.25 14.9153 147.25 15.7532V25.3254H143.505V23.345H143.404C143.175 23.7935 142.87 24.1871 142.49 24.5256C142.109 24.8557 141.652 25.1181 141.118 25.3127C140.585 25.4989 139.967 25.592 139.265 25.592ZM140.395 22.8752C140.97 22.8752 141.478 22.761 141.918 22.5325C142.367 22.2955 142.714 21.9823 142.959 21.593C143.213 21.1952 143.34 20.7509 143.34 20.26V18.7493C143.222 18.8254 143.052 18.8974 142.832 18.9651C142.621 19.0328 142.384 19.092 142.121 19.1428C141.859 19.1936 141.597 19.2402 141.334 19.2825C141.072 19.3163 140.835 19.3502 140.623 19.384C140.158 19.4517 139.752 19.5618 139.405 19.7141C139.058 19.858 138.787 20.0569 138.592 20.3108C138.406 20.5562 138.313 20.8652 138.313 21.2375C138.313 21.7708 138.507 22.177 138.897 22.4563C139.286 22.7356 139.785 22.8752 140.395 22.8752Z" fill="#2B2B2B"/>
<rect x="156.928" y="3.95602" width="36" height="25" rx="10" fill="#4EB8E7"/>
<path d="M162.703 21V10.0869H169.947V11.9912H165.003V14.1152H166.783C167.647 14.1152 168.392 14.2568 169.017 14.54C169.646 14.8184 170.132 15.2114 170.474 15.7192C170.816 16.2271 170.987 16.8252 170.987 17.5137C170.987 18.2021 170.816 18.8076 170.474 19.3301C170.132 19.8525 169.646 20.2627 169.017 20.5605C168.392 20.8535 167.647 21 166.783 21H162.703ZM165.003 19.1396H166.783C167.198 19.1396 167.547 19.0664 167.83 18.9199C168.113 18.7686 168.328 18.5684 168.475 18.3193C168.621 18.0654 168.694 17.7896 168.694 17.4917C168.694 17.0571 168.531 16.6909 168.204 16.3931C167.876 16.0952 167.403 15.9463 166.783 15.9463H165.003V19.1396ZM175.638 21.1611C174.812 21.1611 174.097 20.9854 173.492 20.6338C172.891 20.2773 172.427 19.7842 172.1 19.1543C171.778 18.5195 171.617 17.7822 171.617 16.9424C171.617 16.0928 171.778 15.353 172.1 14.7231C172.427 14.0884 172.891 13.5952 173.492 13.2437C174.097 12.8872 174.812 12.709 175.638 12.709C176.468 12.709 177.183 12.8872 177.784 13.2437C178.389 13.5952 178.853 14.0884 179.175 14.7231C179.502 15.353 179.666 16.0928 179.666 16.9424C179.666 17.7822 179.502 18.5195 179.175 19.1543C178.853 19.7842 178.389 20.2773 177.784 20.6338C177.183 20.9854 176.468 21.1611 175.638 21.1611ZM175.652 19.3887C176.028 19.3887 176.343 19.2837 176.597 19.0737C176.851 18.8589 177.042 18.5659 177.168 18.1948C177.3 17.8237 177.366 17.4014 177.366 16.9277C177.366 16.4492 177.3 16.0269 177.168 15.6606C177.042 15.2944 176.851 15.0063 176.597 14.7964C176.343 14.5864 176.028 14.4814 175.652 14.4814C175.271 14.4814 174.952 14.5864 174.693 14.7964C174.439 15.0063 174.246 15.2944 174.114 15.6606C173.987 16.0269 173.924 16.4492 173.924 16.9277C173.924 17.4014 173.987 17.8237 174.114 18.1948C174.246 18.5659 174.439 18.8589 174.693 19.0737C174.952 19.2837 175.271 19.3887 175.652 19.3887ZM179.871 14.5986V12.8115H187.276V14.5986H184.646V21H182.486V14.5986H179.871Z" fill="white"/>
<g clip-path="url(#clip0_299_17)">
<path d="M17.8533 16.9519V29.6466H28.7413C29.2854 29.6484 29.7284 29.2089 29.7247 28.667V16.952L17.8533 16.9519Z" fill="#4EB8E7"/>
<path d="M2.2815 16.9538V28.6688C2.27966 29.2052 2.71165 29.6429 3.25025 29.6483H14.1491V16.9537L2.2815 16.9538Z" fill="#4EB8E7"/>
<path d="M6.19851 0.351556C4.04411 0.351556 2.27757 2.1112 2.27757 4.25718C2.27757 4.96579 2.47059 5.63231 2.80515 6.20728H1.29597H1.29781C1.03678 6.20544 0.784961 6.30798 0.601102 6.49292C0.415441 6.67602 0.3125 6.92688 0.3125 7.1869V14.0185C0.3125 14.2785 0.415441 14.5293 0.601102 14.7124C0.784923 14.8974 1.03676 14.9999 1.29781 14.9999H14.1491V6.20711H6.25593H6.25776C6.23754 6.20528 6.21732 6.20345 6.1971 6.20345C5.10336 6.20345 4.22835 5.34835 4.22835 4.25889C4.22835 3.16942 5.10152 2.31249 6.1971 2.31249C10.3717 2.31249 12.9195 4.63609 14.1712 6.20715H17.8238C19.0738 4.63609 21.6197 2.31249 25.7927 2.31249C26.8865 2.31249 27.7615 3.16759 27.7615 4.25889C27.7615 5.34835 26.8883 6.20345 25.7927 6.20345H25.7946C25.7872 6.20345 25.7799 6.20528 25.7725 6.20711H17.8534V14.9999H30.708H30.7227C31.2613 14.9926 31.6933 14.555 31.6915 14.0185V7.18689C31.6933 6.92688 31.5904 6.67788 31.4047 6.49291C31.2209 6.3098 30.9691 6.20543 30.708 6.20727H29.1915C29.526 5.6323 29.719 4.96583 29.719 4.25717C29.719 2.11119 27.947 0.351547 25.7944 0.351547C20.5629 0.351547 17.4104 3.52475 15.9987 5.40139C14.5869 3.52456 11.4307 0.351547 6.19912 0.351547L6.19851 0.351556Z" fill="#4EB8E7"/>
</g>
<defs>
<clipPath id="clip0_299_17">
<rect width="32" height="30" fill="white"/>
</clipPath>
</defs>
</svg>
